<svg width="410" height="404" viewBox="0 0 410 404" fill="none" xmlns="http://www.w3.org/2000/svg">
  <path d="M399.641 59.5246L215.643 388.545C211.844 395.338 202.084 395.378 198.228 388.618L10.5817 59.5563C6.38087 52.1896 12.6802 43.2665 21.0281 44.7586L205.223 77.6824C206.398 77.8924 207.601 77.8904 208.776 77.6763L389.119 44.8058C397.439 43.2893 403.768 52.1434 399.627 59.5263L399.641 59.5246Z" fill="url(#paint0_linear_1_21)"/>
  <path d="M292.965 1.5744L156.801 28.2552C155.859 28.4344 155.032 28.9658 154.53 29.7476L51.5301 196.369C50.1977 198.515 51.8707 201.229 54.4205 201.033L132.89 195.073C133.937 194.992 134.931 194.498 135.557 193.688L301.281 1.88249C302.863 0.0195636 300.924 -2.5766 298.681 -2.14526e-05L292.965 1.5744Z" fill="url(#paint1_linear_1_21)"/>
  <path d="M299.454 0.00795736L140.441 50.2858C139.433 50.6154 138.621 51.3671 138.265 52.3646L85.9191 199.278C85.0806 201.639 87.3525 203.893 89.6872 203.113L161.737 178.693C162.827 178.327 163.694 177.493 164.095 176.409L302.687 0.746811C303.926 -2.14875 301.24 -4.49572 299.454 0.00795736Z" fill="url(#paint2_linear_1_21)"/>
  <defs>
    <linearGradient id="paint0_linear_1_21" x1="6.00017" y1="32.9999" x2="235" y2="344" gradientUnits="userSpaceOnUse">
      <stop stop-color="#41D1FF"/>
      <stop offset="1" stop-color="#BD34FE"/>
    </linearGradient>
    <linearGradient id="paint1_linear_1_21" x1="194.651" y1="8.81818" x2="236.076" y2="292.989" gradientUnits="userSpaceOnUse">
      <stop stop-color="#FFEA83"/>
      <stop offset="0.0833333" stop-color="#FFDD35"/>
      <stop offset="1" stop-color="#FFA800"/>
    </linearGradient>
    <linearGradient id="paint2_linear_1_21" x1="165.969" y1="17.3956" x2="184.833" y2="263.969" gradientUnits="userSpaceOnUse">
      <stop stop-color="#FFEA83"/>
      <stop offset="0.0833333" stop-color="#FFDD35"/>
      <stop offset="1" stop-color="#FFA800"/>
    </linearGradient>
  </defs>
</svg>
